<svg width="24" height="24" viewBox="0 0 24 24" fill="none" xmlns="http://www.w3.org/2000/svg">
<path d="M8.33072 9.41L12.0375 11.7521L15.719 9.42375" stroke="#292D32" stroke-width="0.75" stroke-linecap="round" stroke-linejoin="round"/>
<path d="M12.0375 15.9046V11.7475" stroke="#292D32" stroke-width="0.75" stroke-linecap="round" stroke-linejoin="round"/>
<path d="M11.1685 7.13668L8.92685 8.49335C8.4189 8.80043 8.00331 9.57043 8.00331 10.2029V12.7925C8.00331 13.425 8.4189 14.195 8.92685 14.5021L11.1685 15.8633C11.6471 16.1521 12.4321 16.1521 12.9106 15.8633L15.1523 14.5021C15.6603 14.195 16.0759 13.425 16.0759 12.7925V10.2029C16.0759 9.57043 15.6603 8.80043 15.1523 8.49335L12.9106 7.1321C12.4279 6.84335 11.6471 6.84335 11.1685 7.13668Z" stroke="#292D32" stroke-width="0.75" stroke-linecap="round" stroke-linejoin="round"/>
<path d="M13.7408 2.77042L11.9704 1L10.2 2.77042" stroke="#292D32" stroke-width="0.75" stroke-miterlimit="10" stroke-linecap="round" stroke-linejoin="round"/>
<path d="M11.9704 5.95834V1.04959" stroke="#292D32" stroke-width="0.75" stroke-miterlimit="10" stroke-linecap="round" stroke-linejoin="round"/>
<path d="M10.2592 20.1879L12.0296 21.9583L13.8 20.1879" stroke="#292D32" stroke-width="0.75" stroke-miterlimit="10" stroke-linecap="round" stroke-linejoin="round"/>
<path d="M12.0296 17L12.0296 21.9088" stroke="#292D32" stroke-width="0.75" stroke-miterlimit="10" stroke-linecap="round" stroke-linejoin="round"/>
<path d="M21.1879 13.5408L22.9583 11.7704L21.1879 10" stroke="#292D32" stroke-width="0.75" stroke-miterlimit="10" stroke-linecap="round" stroke-linejoin="round"/>
<path d="M18 11.7704L22.9088 11.7704" stroke="#292D32" stroke-width="0.75" stroke-miterlimit="10" stroke-linecap="round" stroke-linejoin="round"/>
<path d="M2.77042 10L1 11.7704L2.77042 13.5408" stroke="#292D32" stroke-width="0.75" stroke-miterlimit="10" stroke-linecap="round" stroke-linejoin="round"/>
<path d="M5.95834 11.7704L1.04959 11.7704" stroke="#292D32" stroke-width="0.75" stroke-miterlimit="10" stroke-linecap="round" stroke-linejoin="round"/>
</svg>
