<svg width="24" height="24" viewBox="0 0 24 24" fill="none" xmlns="http://www.w3.org/2000/svg">
<path d="M7.52295 9.72314L11.765 12.2803L15.9783 9.73816" stroke="#292D32" stroke-width="1.5" stroke-linecap="round" stroke-linejoin="round"/>
<path d="M11.765 16.814V12.2753" stroke="#292D32" stroke-width="1.5" stroke-linecap="round" stroke-linejoin="round"/>
<path d="M10.7705 7.24107L8.20511 8.72231C7.62381 9.05759 7.14819 9.89829 7.14819 10.5889V13.4162C7.14819 14.1068 7.62381 14.9475 8.20511 15.2828L10.7705 16.769C11.3182 17.0843 12.2166 17.0843 12.7643 16.769L15.3297 15.2828C15.911 14.9475 16.3866 14.1068 16.3866 13.4162V10.5889C16.3866 9.89829 15.911 9.05759 15.3297 8.72231L12.7643 7.23607C12.2118 6.92081 11.3182 6.92081 10.7705 7.24107Z" stroke="#292D32" stroke-width="1.5" stroke-linecap="round" stroke-linejoin="round"/>
<path d="M13 2.5L11.5 1L10 2.5" stroke="#292D32" stroke-width="1.5" stroke-miterlimit="10" stroke-linecap="round" stroke-linejoin="round"/>
<path d="M11.5 5.20109V1.04211" stroke="#292D32" stroke-width="1.5" stroke-miterlimit="10" stroke-linecap="round" stroke-linejoin="round"/>
<path d="M10 21.701L11.5 23.201L13 21.701" stroke="#292D32" stroke-width="1.5" stroke-miterlimit="10" stroke-linecap="round" stroke-linejoin="round"/>
<path d="M11.5 19.0001L11.5 23.1591" stroke="#292D32" stroke-width="1.5" stroke-miterlimit="10" stroke-linecap="round" stroke-linejoin="round"/>
<path d="M21.4584 14L22.9584 12.5L21.4584 11" stroke="#292D32" stroke-width="1.5" stroke-miterlimit="10" stroke-linecap="round" stroke-linejoin="round"/>
<path d="M18.7573 12.5L22.9163 12.5" stroke="#292D32" stroke-width="1.5" stroke-miterlimit="10" stroke-linecap="round" stroke-linejoin="round"/>
<path d="M2.5 11L1 12.5L2.5 14" stroke="#292D32" stroke-width="1.5" stroke-miterlimit="10" stroke-linecap="round" stroke-linejoin="round"/>
<path d="M5.20103 12.5L1.04205 12.5" stroke="#292D32" stroke-width="1.5" stroke-miterlimit="10" stroke-linecap="round" stroke-linejoin="round"/>
</svg>
